<svg xmlns="http://www.w3.org/2000/svg" width="256" height="256" viewBox="0 0 256 256">
  <!-- Flippy the Flop: cartoon drone with big eyes -->
  <defs>
    <radialGradient id="g" cx="50%" cy="40%" r="70%">
      <stop offset="0%" stop-color="#7fd3ff"/>
      <stop offset="100%" stop-color="#2b5cff"/>
    </radialGradient>
  </defs>
  <rect width="256" height="256" rx="28" fill="#0b1020"/>
  <!-- body -->
  <ellipse cx="128" cy="128" rx="54" ry="38" fill="url(#g)" stroke="#79b9ff" stroke-width="3"/>
  <!-- eyes -->
  <circle cx="112" cy="125" r="12" fill="#fff"/>
  <circle cx="144" cy="125" r="12" fill="#fff"/>
  <circle cx="116" cy="127" r="5" fill="#1a2b66"/>
  <circle cx="148" cy="127" r="5" fill="#1a2b66"/>
  <circle cx="118" cy="125" r="2" fill="#aee6ff"/>
  <circle cx="150" cy="125" r="2" fill="#aee6ff"/>
  <!-- smile -->
  <path d="M110 142c8 10 28 10 36 0" fill="none" stroke="#07204a" stroke-width="4" stroke-linecap="round"/>
  <!-- arms/props -->
  <g stroke="#7aa3ff" stroke-width="5" stroke-linecap="round">
    <path d="M74 112h36"/>
    <path d="M146 112h36"/>
    <path d="M106 152v24"/>
    <path d="M150 152v24"/>
  </g>
  <!-- rotors -->
  <g fill="#e8edf7" stroke="#89b7ff" stroke-width="2">
    <rect x="52" y="100" width="40" height="12" rx="6"/>
    <rect x="164" y="100" width="40" height="12" rx="6"/>
    <rect x="96" y="172" width="20" height="10" rx="5"/>
    <rect x="142" y="172" width="20" height="10" rx="5"/>
  </g>
  <!-- name -->
  <text x="128" y="228" fill="#f7c948" font-family="Poppins, Arial" font-size="18" text-anchor="middle">Flippy the Flop</text>
</svg>
